<?xml version="1.0" encoding="utf-8"?>

<!-- Uploaded to: SVG Repo, www.svgrepo.com, Generator: SVG Repo Mixer Tools -->
<svg fill="#000000" height="800px" width="800px" version="1.1" id="Icons" xmlns="http://www.w3.org/2000/svg" xmlns:xlink="http://www.w3.org/1999/xlink" 
	 viewBox="0 0 32 32" xml:space="preserve">
<g>
	<path d="M20.9,17c-0.1,0.6-0.4,1.2-0.7,1.8l6.4,6.4c1.9-2.2,3.2-5,3.4-8.2H20.9z"/>
	<path d="M17,11.1c2,0.4,3.5,1.9,3.9,3.9h9.1C29.5,8.1,23.9,2.5,17,2.1V11.1z"/>
	<path d="M18.8,20.2C18,20.7,17,21,16,21c-2.8,0-5-2.2-5-5c0-2.4,1.7-4.4,4-4.9V2.1C7.7,2.6,2,8.6,2,16c0,7.7,6.3,14,14,14
		c3.5,0,6.7-1.3,9.2-3.4L18.8,20.2z"/>
</g>
</svg>